# xmcd
# 
# Track frame offsets:
#     150
#     16428
#     34976
#     53379
#     64561
#     84573
#     98023
#     114014
#     124534
#     136191
#     145541
# 
# Disc length: 2172
# 
# Revision: 1
# Processed by: cddbd v1.5.2PL0 Copyright (c) Steve Scherf et al.
# Submitted via: fre:ac v1.0.27
# 
DISCID=7c087a0b
DTITLE=Steve Earle and the Dukes - Terraplane
DYEAR=2015
DGENRE=????
TTITLE0=Baby Baby Baby (Baby)
TTITLE1=You're the Best Lover That I Ever Had
TTITLE2=The Tennessee Kid
TTITLE3=Ain't Nobody's Daddy Now
TTITLE4=Better off Alone
TTITLE5=The Usual Time
TTITLE6=Go-Go Boots Are Back
TTITLE7=Acquainted With the Wind
TTITLE8=Baby's Just As Mean As Me
TTITLE9=Gamblin' Blues
TTITLE10=King of the Blues
EXTD=
EXTT0=
EXTT1=
EXTT2=
EXTT3=
EXTT4=
EXTT5=
EXTT6=
EXTT7=
EXTT8=
EXTT9=
EXTT10=
PLAYORDER=
